<?xml version="1.0" standalone="no"?>
<!DOCTYPE svg PUBLIC "-//W3C//DTD SVG 20010904//EN"
 "http://www.w3.org/TR/2001/REC-SVG-20010904/DTD/svg10.dtd">
<svg version="1.0" xmlns="http://www.w3.org/2000/svg"
 width="16.000000pt" height="16.000000pt" viewBox="0 0 16.000000 16.000000"
 preserveAspectRatio="xMidYMid meet">
<metadata>
Created by potrace 1.11, written by Peter Selinger 2001-2013
</metadata>
<g transform="translate(0.000000,16.000000) scale(0.002286,-0.002286)"
fill="#000000" stroke="none">
<path d="M3038 6995 c-2 -2 -46 -6 -98 -9 -52 -4 -115 -9 -140 -12 -62 -7
-353 -74 -365 -84 -5 -4 -64 -22 -130 -40 -66 -17 -128 -36 -138 -41 -11 -6
-65 -26 -120 -46 -210 -72 -383 -158 -487 -239 -25 -20 -56 -44 -70 -54 -14
-10 -65 -48 -115 -84 -79 -58 -410 -375 -520 -497 -161 -179 -253 -303 -317
-424 -23 -44 -57 -104 -76 -134 -35 -55 -41 -68 -132 -276 -29 -66 -65 -147
-80 -180 -57 -126 -91 -240 -126 -425 -3 -14 -10 -43 -16 -65 -5 -22 -11 -47
-13 -55 -2 -8 -15 -60 -29 -115 -15 -55 -29 -122 -32 -150 -3 -27 -9 -76 -13
-107 -22 -163 -19 -875 4 -983 3 -16 10 -49 16 -72 5 -24 11 -79 14 -123 3
-44 17 -133 30 -197 14 -64 25 -129 25 -143 0 -32 49 -179 79 -237 11 -23 21
-50 21 -60 0 -58 175 -410 252 -507 13 -17 28 -42 35 -57 14 -32 84 -129 94
-129 4 0 22 -26 39 -57 18 -31 56 -82 85 -113 28 -30 58 -65 66 -77 8 -12 42
-51 75 -87 34 -35 81 -88 105 -116 47 -55 186 -177 284 -249 33 -24 84 -65
112 -91 29 -25 90 -65 135 -89 46 -24 90 -49 98 -55 42 -35 420 -228 545 -278
109 -45 323 -108 364 -108 14 0 43 -6 66 -14 33 -12 137 -38 250 -62 11 -3 90
-14 175 -25 127 -17 216 -21 495 -22 187 -1 381 2 430 6 50 5 119 10 155 12
36 1 79 5 95 9 17 3 46 8 65 11 19 3 76 12 125 21 50 8 117 19 150 25 33 5 69
11 80 13 11 2 40 7 65 11 25 4 56 9 69 12 13 2 66 18 118 34 53 17 148 46 212
64 153 43 439 150 575 215 60 28 213 111 340 184 127 73 242 137 256 141 29 8
148 80 240 145 36 25 76 50 91 57 21 9 214 172 309 260 14 13 46 40 72 61 64
51 69 64 66 164 l-3 88 -110 -108 c-60 -59 -130 -123 -155 -142 -24 -19 -56
-46 -70 -59 -47 -43 -171 -141 -180 -141 -5 0 -15 -6 -22 -13 -56 -55 -314
-216 -369 -230 -13 -4 -35 -16 -49 -27 -46 -37 -159 -110 -186 -120 -14 -6
-52 -25 -83 -43 -53 -32 -191 -91 -331 -144 -151 -57 -346 -123 -363 -123 -9
0 -25 -4 -35 -9 -57 -31 -350 -106 -444 -116 -63 -6 -79 -8 -153 -20 -16 -3
-49 -7 -73 -10 -23 -3 -62 -12 -85 -20 -60 -21 -187 -29 -457 -30 -297 0 -304
1 -430 43 -142 47 -211 79 -302 141 -72 48 -258 226 -295 282 -9 13 -21 29
-28 34 -18 15 -154 251 -185 319 -79 177 -152 477 -153 633 -1 100 7 139 53
253 33 84 131 280 155 309 11 14 27 38 35 54 14 28 83 96 184 182 32 28 66 57
75 65 9 9 36 29 61 44 25 16 64 44 87 63 64 51 242 123 320 128 35 2 68 7 72
10 5 2 111 7 237 10 126 4 238 8 249 10 11 2 58 10 105 19 47 9 103 18 125 22
68 10 145 35 265 86 181 77 231 101 271 130 20 15 66 41 101 59 34 17 88 51
118 74 63 49 241 233 315 325 28 35 73 88 101 119 88 98 249 343 285 434 11
29 40 93 63 142 69 144 104 242 126 355 11 58 25 119 30 135 24 76 33 221 19
285 -4 19 -11 51 -14 70 -8 47 -52 237 -64 275 -30 98 -117 301 -193 450 -83
161 -231 357 -382 507 -68 67 -267 215 -394 293 -9 6 -55 35 -102 66 -166 108
-331 195 -390 205 -14 2 -41 11 -60 18 -72 30 -180 58 -345 91 -173 35 -232
42 -410 50 -55 2 -134 7 -175 11 -74 7 -317 13 -322 9z m326 -119 c21 -3 48
-8 60 -11 12 -2 49 -7 84 -10 95 -8 197 -45 298 -108 189 -117 367 -347 405
-525 7 -31 14 -61 15 -67 44 -194 48 -316 14 -445 -11 -43 -70 -169 -90 -193
-6 -7 -30 -37 -54 -67 -90 -113 -110 -119 -231 -71 -44 17 -99 33 -123 35 -60
6 -72 18 -62 64 5 20 11 57 14 82 3 25 8 59 11 75 8 49 14 96 21 165 3 36 8
67 9 70 3 5 0 24 -20 143 -3 20 -5 37 -3 37 2 0 26 -8 53 -18 86 -32 147 -2
111 53 -20 31 -67 52 -151 69 l-60 13 -95 130 c-152 208 -187 249 -244 278
-11 6 -54 37 -95 68 -40 31 -78 57 -85 57 -6 0 -47 17 -91 39 -44 22 -116 56
-159 76 -44 19 -77 37 -75 39 7 7 72 16 164 22 50 4 91 7 92 8 5 4 254 -3 287
-8z m649 -72 c20 -7 37 -11 37 -9 0 5 122 -30 161 -48 19 -8 75 -31 124 -52
119 -49 258 -160 357 -285 60 -76 117 -210 133 -310 24 -161 28 -194 27 -235
-1 -45 -14 -120 -38 -214 -9 -36 -17 -73 -19 -83 -13 -67 -50 -179 -70 -213
-28 -48 -115 -141 -170 -182 -109 -82 -198 -100 -290 -58 -52 24 -145 104
-145 125 0 5 29 54 65 109 36 55 65 105 65 112 0 6 8 23 19 37 10 15 41 86 68
158 l49 131 38 -33 c29 -25 43 -31 59 -25 32 12 43 36 28 63 -11 20 -24 32
-93 81 -16 11 -21 31 -33 137 -3 25 -12 65 -20 90 -7 25 -17 61 -20 80 -9 47
-69 184 -108 245 -39 62 -236 316 -286 368 l-36 38 30 -7 c17 -4 47 -13 68
-20z m-1318 -104 c33 -5 80 -10 105 -13 52 -6 66 -11 220 -79 63 -28 144 -70
180 -93 104 -67 307 -297 335 -379 7 -20 17 -42 23 -49 17 -22 43 -144 48
-234 9 -148 -46 -337 -112 -388 -36 -28 -54 -31 -221 -39 -56 -3 -119 -8 -140
-12 l-38 -6 -39 116 c-34 102 -75 193 -125 278 -9 15 -35 59 -58 99 -24 39
-43 75 -43 80 0 5 12 12 28 15 47 12 81 41 75 67 -13 50 -31 58 -122 56 -83
-2 -88 -1 -141 32 -80 51 -239 113 -392 153 l-133 35 -200 -4 c-110 -2 -222
-8 -250 -14 -27 -5 -84 -17 -125 -26 -41 -8 -88 -18 -105 -20 -16 -3 -39 -8
-50 -11 -14 -5 -9 6 20 36 51 52 169 150 183 150 5 0 49 25 97 55 48 30 124
68 168 85 45 18 97 40 116 51 19 11 40 18 46 15 7 -2 16 -2 20 2 4 4 61 16
128 28 131 23 386 30 502 14z m2370 -419 c79 -64 223 -206 271 -267 21 -27 49
-107 72 -204 11 -47 4 -215 -12 -282 -18 -80 -145 -342 -208 -430 -87 -121
-256 -252 -392 -303 -60 -23 -78 -25 -199 -22 -72 1 -137 6 -144 10 -12 8 -93
160 -93 176 0 5 39 31 88 57 48 25 98 57 112 69 14 13 42 34 63 48 52 35 165
162 190 215 12 23 24 42 28 42 3 0 9 -17 12 -37 6 -36 59 -113 77 -113 17 0
40 32 40 55 0 30 -27 88 -68 147 l-33 47 37 138 c36 135 37 143 41 347 2 155
-1 232 -12 295 -22 126 -22 127 18 100 17 -13 68 -52 112 -88z m-2820 -75 c33
-10 83 -28 110 -41 28 -13 80 -37 116 -53 44 -20 76 -42 95 -67 16 -21 50 -62
77 -92 26 -29 47 -57 47 -62 0 -5 6 -16 14 -23 24 -24 101 -150 133 -218 38
-79 83 -210 83 -241 0 -43 -91 -140 -264 -281 l-99 -80 -25 33 c-36 48 -182
192 -274 270 -43 36 -120 88 -172 115 l-95 49 47 45 c27 25 61 62 77 83 24 32
26 41 17 62 -14 30 -40 32 -73 7 -13 -10 -46 -31 -74 -46 -44 -24 -76 -56
-105 -105 -7 -12 -16 -12 -56 -1 -50 12 -277 15 -396 4 -109 -10 -199 -33
-298 -78 -92 -41 -155 -78 -471 -281 -81 -51 -156 -96 -168 -100 -19 -6 -20
-4 -12 17 32 83 164 308 220 375 6 6 50 65 100 130 49 66 111 137 138 158 26
22 50 42 53 45 15 18 132 98 180 122 30 16 64 34 75 41 33 21 129 71 140 73
26 5 116 35 174 58 36 14 72 26 80 26 9 0 30 7 46 16 35 18 72 26 254 53 83
12 243 5 306 -13z m3340 -655 c39 -60 112 -224 124 -280 24 -110 -6 -270 -70
-374 -16 -27 -29 -52 -29 -56 0 -23 -131 -191 -206 -266 -112 -111 -179 -161
-289 -215 -76 -37 -98 -43 -164 -45 -131 -6 -322 35 -411 88 -46 28 -47 28
-49 102 -1 35 -4 74 -7 88 -4 27 -2 28 85 42 90 15 283 101 426 190 39 25 76
45 82 45 6 0 10 -15 10 -32 0 -115 4 -139 23 -158 24 -24 46 -17 64 19 14 29
13 151 -3 208 -9 31 -6 37 37 87 26 30 75 101 110 160 65 110 194 388 207 447
7 31 9 32 19 15 6 -10 25 -39 41 -65z m-3809 -101 c54 -12 107 -23 117 -25 10
-2 63 -28 119 -57 107 -56 107 -56 236 -228 51 -68 116 -202 137 -279 11 -44
8 -70 -15 -126 -10 -26 -36 -116 -51 -180 -6 -27 -15 -54 -20 -59 -4 -5 -31 0
-61 12 -73 29 -299 90 -438 117 -92 18 -145 23 -265 21 l-151 -1 18 37 c44 90
57 228 23 228 -48 0 -118 -62 -162 -141 -15 -29 -28 -55 -29 -58 -1 -16 -43
-78 -70 -105 -17 -17 -73 -53 -125 -80 -253 -132 -443 -255 -548 -356 -71 -69
-281 -331 -326 -407 -11 -18 -22 -28 -25 -23 -7 12 -4 191 5 257 23 178 128
515 202 653 25 47 65 108 88 135 73 86 209 221 251 251 23 16 106 80 185 142
99 77 175 128 244 162 110 54 267 110 311 110 16 1 52 7 79 14 61 17 141 13
271 -14z m1700 -266 c34 -20 73 -46 87 -58 29 -25 83 -127 91 -173 4 -18 11
-45 17 -60 11 -29 13 -113 3 -145 -4 -13 -15 -18 -38 -18 -25 0 -35 6 -44 25
-7 14 -12 33 -12 42 0 8 -22 40 -50 70 -27 30 -50 59 -50 65 0 5 9 21 20 35
24 31 25 37 4 57 -17 17 -70 21 -93 7 -9 -6 -39 3 -90 26 -76 35 -159 66 -216
79 l-30 7 44 19 c25 11 63 22 85 24 23 2 61 11 86 18 77 25 119 20 186 -20z
m219 21 c89 -8 143 -39 183 -105 l33 -55 -4 -130 c-4 -142 -14 -177 -69 -227
-35 -33 -70 -36 -98 -8 -23 23 -23 24 -9 88 5 27 11 69 12 93 2 39 5 44 29 49
29 5 68 33 68 49 0 5 -14 20 -31 32 -26 18 -35 20 -56 10 -31 -14 -39 -9 -61
37 -22 47 -100 152 -111 152 -5 0 -11 7 -15 15 -4 12 2 14 32 10 20 -2 64 -7
97 -10z m-455 -173 c36 -18 79 -44 95 -58 17 -15 46 -36 65 -49 63 -40 76 -65
87 -166 3 -33 1 -48 -10 -58 -19 -15 -42 -4 -156 73 -43 30 -89 57 -100 61
-21 6 -21 8 -7 31 20 30 20 58 0 78 -14 15 -19 14 -56 -15 -28 -22 -38 -38
-35 -50 3 -11 2 -17 -3 -14 -12 8 -109 17 -190 19 -56 1 -92 -4 -143 -22 -38
-13 -71 -21 -74 -18 -8 8 43 82 94 137 36 39 55 50 106 63 91 23 95 23 182 22
68 -1 89 -6 145 -34z m831 -32 c19 -21 44 -58 54 -82 10 -24 27 -54 36 -68 10
-14 27 -54 38 -88 l21 -62 -39 -54 c-48 -65 -80 -89 -149 -111 -41 -14 -64
-16 -104 -9 -47 8 -53 12 -60 42 -7 28 -4 38 20 70 23 29 51 74 69 110 0 2 16
-4 33 -13 32 -17 33 -16 58 8 24 25 25 26 8 52 -9 14 -28 30 -42 35 -21 8 -24
16 -25 62 0 29 -3 82 -5 117 l-6 64 29 -17 c15 -10 44 -36 64 -56z m-1001
-184 c48 -8 192 -81 229 -117 17 -16 32 -38 32 -49 1 -11 2 -30 3 -42 3 -39
-15 -69 -37 -62 -96 31 -164 45 -232 50 -44 4 -82 8 -84 10 -3 2 6 18 18 35
21 28 21 32 7 54 -14 21 -20 23 -44 14 -34 -12 -58 -47 -43 -62 6 -6 11 -14
11 -18 0 -3 -44 -17 -97 -29 -53 -12 -117 -31 -141 -41 -25 -11 -53 -21 -63
-22 -9 -2 -24 -9 -32 -15 -8 -7 -32 -16 -52 -19 l-36 -6 21 54 c34 87 76 144
138 186 139 96 210 110 402 79z m2685 2 c-2 -13 -6 -54 -10 -93 -9 -87 -6 -76
-49 -225 -50 -178 -82 -269 -103 -293 -46 -55 -144 -140 -203 -177 -98 -61
-274 -145 -378 -180 -123 -42 -281 -49 -382 -18 -64 20 -150 56 -160 68 -3 3
-24 20 -46 38 -25 19 -49 49 -58 73 -18 46 -14 72 31 192 l25 67 51 -6 c29 -4
61 -10 73 -14 19 -8 194 -5 299 4 28 3 60 2 71 0 l21 -6 -18 -49 c-24 -63 -24
-86 1 -99 45 -24 88 15 122 109 20 57 27 66 58 75 19 6 81 35 138 65 95 49
116 66 251 200 151 150 213 216 244 264 21 33 27 34 22 5z m-1500 -313 c-7
-33 -20 -87 -30 -119 -17 -54 -22 -60 -63 -78 -24 -11 -51 -17 -60 -13 -9 4
-37 9 -61 12 -75 8 -166 80 -159 125 3 20 9 23 43 24 22 0 59 4 81 8 40 7 41
6 47 -23 5 -24 12 -31 31 -31 24 0 37 21 50 83 4 17 27 43 64 72 55 43 57 44
62 23 3 -13 1 -50 -5 -83z m-1150 30 c90 -16 150 -66 141 -116 -3 -13 -5 -29
-5 -35 -1 -10 -26 -19 -81 -29 -8 -2 -41 -6 -73 -9 -49 -5 -137 -30 -209 -61
-16 -6 -17 -4 -7 24 7 19 8 49 2 83 l-8 52 -34 -30 c-32 -29 -34 -34 -32 -92
1 -49 -2 -65 -16 -76 -10 -8 -46 -37 -80 -64 -34 -27 -81 -67 -105 -90 -24
-22 -55 -50 -69 -61 l-26 -20 -7 37 c-3 20 -6 71 -6 112 0 65 5 85 33 145 44
90 98 150 168 186 54 27 72 33 144 45 17 3 32 8 35 11 5 6 186 -4 235 -12z
m-1405 -19 c79 -10 167 -34 224 -63 76 -38 249 -158 290 -200 33 -35 36 -42
36 -98 0 -33 7 -100 16 -149 12 -73 13 -91 2 -97 -7 -5 -67 -9 -133 -10 -237
-1 -347 -13 -506 -53 -120 -30 -376 -126 -389 -146 -11 -16 -40 -6 -41 14 -1
41 -10 70 -29 100 -41 64 -47 68 -69 57 -34 -19 -71 -181 -60 -261 8 -54 2
-66 -81 -150 -83 -86 -134 -167 -239 -383 -84 -172 -118 -264 -151 -407 -7
-30 -18 -66 -26 -80 -7 -14 -15 -57 -19 -95 -4 -39 -12 -93 -19 -120 -9 -35
-10 -70 -4 -115 4 -36 10 -146 13 -245 l5 -180 -19 31 c-30 49 -159 355 -164
391 -3 17 -19 66 -36 110 -46 118 -83 290 -108 513 -10 85 -10 381 0 445 12
77 19 109 26 120 4 6 20 42 35 80 16 39 37 89 47 112 11 24 19 48 19 53 0 13
42 92 52 100 4 3 26 35 49 70 117 183 246 309 465 455 62 41 278 142 319 149
17 3 75 19 130 35 89 27 112 30 205 27 58 -2 130 -7 160 -10z m2208 -236 c37
-9 41 -14 36 -34 -7 -31 17 -51 45 -36 12 6 21 15 21 21 0 5 12 8 28 5 15 -2
42 -5 60 -5 17 -1 32 -5 32 -9 0 -27 -138 -132 -172 -132 -20 0 -88 36 -119
62 -15 13 -32 40 -39 61 -11 35 -10 41 11 63 12 13 30 22 38 20 9 -3 35 -10
59 -16z m-783 -4 c45 -4 64 -11 78 -27 17 -21 25 -95 8 -85 -5 3 -50 -8 -101
-26 -77 -27 -102 -41 -155 -90 l-63 -58 -13 50 c-23 90 -68 102 -80 23 -6 -35
5 -69 29 -93 l29 -28 -49 -99 c-61 -124 -95 -230 -98 -308 -1 -29 -1 -29 -17
-10 -8 11 -43 76 -77 145 -56 115 -61 130 -60 191 0 57 5 74 33 120 83 137
224 243 386 290 33 10 67 16 75 13 8 -2 42 -6 75 -8z m629 -101 c3 -9 0 -25
-7 -36 -10 -17 -9 -22 8 -35 11 -8 29 -13 41 -10 23 6 63 -28 50 -42 -4 -4
-31 -6 -59 -6 -63 2 -140 42 -162 85 -15 28 -15 29 12 34 16 3 42 10 58 14 45
13 52 12 59 -4z m-525 -122 c9 -9 21 -32 26 -51 10 -34 9 -36 -48 -91 -32 -31
-75 -78 -95 -106 -20 -27 -43 -55 -51 -61 -8 -6 -11 -16 -7 -22 3 -6 2 -13 -2
-16 -5 -3 -19 13 -31 35 -17 30 -28 39 -44 37 -17 -2 -23 -11 -25 -41 -3 -30
2 -43 27 -67 16 -17 37 -30 46 -30 15 0 16 -8 10 -72 -5 -40 -7 -77 -7 -83 1
-5 4 -50 7 -100 3 -49 13 -114 21 -144 8 -29 14 -55 12 -57 -2 -2 -50 25 -106
59 -97 59 -103 65 -132 124 -57 120 -58 218 -4 380 20 59 42 119 50 133 17 33
79 98 129 137 71 55 186 73 224 36z m1081 -128 c57 -56 188 -128 269 -149 65
-17 71 -20 50 -28 -25 -10 -89 -66 -89 -80 0 -4 9 -12 20 -18 16 -8 31 -5 75
15 30 15 63 37 74 51 17 22 25 24 92 22 51 -1 112 6 194 25 66 15 140 32 165
38 25 5 81 26 125 45 44 20 95 42 113 50 26 12 32 12 26 2 -18 -30 -97 -145
-113 -163 -9 -11 -25 -36 -35 -55 -28 -51 -164 -181 -233 -223 -147 -90 -253
-112 -405 -87 -161 27 -389 143 -449 228 -45 65 -62 126 -56 199 3 36 12 72
19 80 12 15 108 83 117 83 3 0 21 -16 41 -35z m-961 -39 c7 -8 26 -18 42 -21
35 -8 36 -16 5 -69 -33 -56 -53 -120 -60 -191 -4 -32 -8 -61 -10 -63 -3 -2
-13 1 -24 7 -36 19 -79 22 -92 6 -27 -33 48 -111 97 -102 18 3 23 -2 29 -32
13 -63 20 -83 57 -161 16 -36 31 -78 33 -93 2 -15 22 -58 44 -94 22 -37 38
-68 36 -70 -2 -2 -36 4 -76 13 -165 37 -242 120 -305 324 -33 107 -43 238 -25
308 27 97 160 242 231 251 4 1 12 -5 18 -13z m687 -147 c55 -100 66 -118 98
-173 23 -39 26 -50 15 -57 -8 -5 -19 -9 -26 -9 -7 0 -29 -16 -48 -36 -35 -34
-36 -37 -19 -55 15 -17 26 -18 78 -13 34 4 71 13 83 21 20 14 29 12 90 -15 58
-26 91 -37 125 -42 4 -1 22 -6 40 -11 57 -18 281 -71 325 -78 l43 -6 -123 -82
c-68 -46 -131 -83 -140 -83 -9 0 -60 -14 -112 -31 -63 -20 -107 -28 -128 -25
-17 3 -57 9 -87 12 -61 7 -135 40 -164 73 -11 12 -23 21 -27 21 -20 0 -103 66
-157 125 -105 114 -138 173 -152 268 -21 140 12 200 125 228 28 7 64 18 80 25
17 7 33 13 36 14 4 0 24 -32 45 -71z m-404 25 c29 -15 30 -18 24 -60 -6 -46
14 -138 48 -216 9 -21 16 -39 16 -40 0 -2 -18 -4 -39 -4 -38 -1 -91 -26 -91
-42 2 -35 74 -69 139 -66 38 2 47 -2 70 -29 67 -79 132 -145 196 -196 39 -30
81 -66 95 -79 14 -13 37 -31 53 -40 45 -27 43 -28 -98 -48 -37 -5 -240 -4
-269 1 -45 9 -168 98 -225 163 -105 122 -181 308 -167 411 11 81 16 100 42
159 38 86 57 102 121 102 30 0 68 -7 85 -16z m-1520 -32 c8 -7 42 -17 74 -23
50 -9 84 -24 136 -60 5 -3 21 -41 37 -85 34 -96 67 -170 92 -206 11 -14 19
-31 19 -36 0 -6 -60 -47 -132 -92 -243 -150 -336 -218 -458 -335 -90 -85 -211
-216 -274 -296 -33 -40 -68 -82 -79 -92 -20 -17 -21 -17 -45 25 -60 101 -149
128 -168 51 -15 -58 44 -230 92 -269 18 -15 20 -64 6 -159 -31 -204 -32 -247
-18 -510 3 -66 8 -174 11 -240 3 -66 7 -129 9 -140 29 -132 45 -219 51 -260 3
-27 10 -54 14 -60 4 -5 14 -44 21 -85 7 -41 14 -83 16 -93 1 -9 0 -17 -3 -17
-21 0 -438 336 -501 405 -29 31 -76 91 -104 133 -80 119 -176 371 -193 507 -3
22 -7 47 -10 55 -6 20 -23 144 -31 221 -9 96 -9 387 0 444 23 153 81 312 234
645 59 128 221 313 305 349 24 10 51 26 59 35 34 34 167 96 255 120 51 13 97
28 104 31 6 4 59 17 119 29 125 25 336 30 362 8z m643 -703 c96 -24 165 -48
185 -65 8 -6 26 -15 40 -19 14 -4 62 -25 108 -47 80 -38 83 -41 67 -58 -9 -10
-31 -26 -48 -35 -105 -52 -290 -192 -418 -313 -163 -156 -218 -241 -317 -497
l-39 -100 -110 4 c-104 3 -112 2 -151 -23 -48 -30 -69 -58 -77 -105 -5 -30 -1
-38 34 -72 39 -36 47 -39 143 -53 10 -1 31 -12 47 -24 23 -17 30 -31 36 -74 3
-29 13 -71 21 -93 7 -22 15 -51 17 -65 2 -14 7 -32 10 -40 3 -8 27 -80 54
-160 66 -200 294 -652 474 -941 32 -51 35 -60 17 -54 -7 2 -38 6 -68 9 -73 7
-402 99 -476 133 -63 28 -176 99 -209 129 -11 11 -45 39 -75 64 -113 92 -231
234 -288 345 -79 157 -155 416 -168 575 -3 36 -12 112 -20 170 -11 75 -13 141
-9 230 4 69 8 127 10 130 2 3 6 26 10 50 4 25 11 65 16 90 5 25 12 61 15 80
21 129 150 369 240 449 24 21 44 43 44 49 0 5 21 27 48 48 26 21 61 53 77 69
64 66 201 143 355 199 56 21 220 43 280 39 25 -2 81 -12 125 -24z"/>
</g>
</svg>
